<svg xmlns="http://www.w3.org/2000/svg" viewBox="0 0 860 320" font-family="monospace" font-size="12">
<rect x="0" y="0" width="860" height="320" fill="white"/>
<text x="56" y="16" font-size="14">nollie #1: pitch vs mirrored reference</text>
<line x1="56" y1="284" x2="848" y2="284" stroke="#555"/>
<line x1="56" y1="28" x2="56" y2="284" stroke="#555"/>
<line x1="56" y1="62.13" x2="848" y2="62.13" stroke="#bbb" stroke-dasharray="4 4"/>
<text x="56" y="312">t since kick (ms): 0.0 … 666.7</text>
<text x="8" y="38">nose-up pitch (deg): -26.0 … 4.0</text>
<polyline points="75.80,62.00 95.60,67.65 115.40,75.55 135.20,84.99 155.00,95.77 174.80,107.61 194.60,120.24 214.40,133.42 234.20,146.80 254.00,160.06 273.80,172.94 293.60,185.19 313.40,196.61 333.20,207.02 353.00,216.28 372.80,224.28 392.60,230.94 412.40,236.19 432.20,240.01 452.00,242.39 471.80,243.33 491.60,243.75 511.40,244.18 531.20,244.60 551.00,245.01 570.80,245.43 590.60,245.85 610.40,246.26 630.20,246.68 650.00,247.09 669.80,247.50 689.60,247.91 709.40,248.32 729.20,248.73 749.00,249.13 768.80,249.54 788.60,249.94 808.40,250.35 828.20,229.07 848.00,185.42" fill="none" stroke="#d62728" stroke-width="1.5"/>
<text x="608" y="42" fill="#d62728">measured pitch</text>
<polyline points="75.80,117.60 95.60,173.07 115.40,228.53 135.20,284.00 155.00,281.87 174.80,279.73 194.60,277.60 214.40,275.47 234.20,273.33 254.00,271.20 273.80,269.07 293.60,266.93 313.40,253.28 333.20,239.63 353.00,225.97 372.80,212.32 392.60,198.67 412.40,185.01 432.20,171.36 452.00,157.71 471.80,144.05 491.60,130.40 511.40,123.57 531.20,116.75 551.00,109.92 570.80,103.09 590.60,96.27 610.40,89.44 630.20,82.61 650.00,75.79 669.80,68.96 689.60,62.13 709.40,57.87 729.20,53.60 749.00,49.33 768.80,45.07 788.60,40.80 808.40,36.53 828.20,32.27 848.00,28.00" fill="none" stroke="#1f77b4" stroke-width="1.5"/>
<text x="608" y="56" fill="#1f77b4">reference silhouette (crisp)</text>
</svg>