<svg xmlns="http://www.w3.org/2000/svg" viewBox="0 0 860 320" font-family="monospace" font-size="12">
<rect x="0" y="0" width="860" height="320" fill="white"/>
<text x="56" y="16" font-size="14">ollie #1: pitch vs reference silhouette</text>
<line x1="56" y1="284" x2="848" y2="284" stroke="#555"/>
<line x1="56" y1="28" x2="56" y2="284" stroke="#555"/>
<line x1="56" y1="249.87" x2="848" y2="249.87" stroke="#bbb" stroke-dasharray="4 4"/>
<text x="56" y="312">t since kick (ms): 0.0 … 666.7</text>
<text x="8" y="38">nose-up pitch (deg): -4.0 … 26.0</text>
<polyline points="75.80,245.76 95.60,238.79 115.40,229.58 135.20,218.96 155.00,207.24 174.80,194.67 194.60,181.51 214.40,168.00 234.20,154.46 254.00,141.19 273.80,128.44 293.60,116.44 313.40,105.39 333.20,95.43 353.00,86.69 372.80,79.27 392.60,73.25 412.40,68.66 432.20,65.52 452.00,63.83 471.80,63.58 491.60,63.47 511.40,63.36 531.20,63.25 551.00,63.14 570.80,63.03 590.60,62.91 610.40,62.80 630.20,62.69 650.00,62.58 669.80,62.48 689.60,62.37 709.40,62.26 729.20,62.15 749.00,62.04 768.80,61.93 788.60,61.83 808.40,61.72 828.20,112.89 848.00,169.28" fill="none" stroke="#d62728" stroke-width="1.5"/>
<text x="608" y="42" fill="#d62728">measured pitch</text>
<polyline points="75.80,194.40 95.60,138.93 115.40,83.47 135.20,28.00 155.00,30.13 174.80,32.27 194.60,34.40 214.40,36.53 234.20,38.67 254.00,40.80 273.80,42.93 293.60,45.07 313.40,58.72 333.20,72.37 353.00,86.03 372.80,99.68 392.60,113.33 412.40,126.99 432.20,140.64 452.00,154.29 471.80,167.95 491.60,181.60 511.40,188.43 531.20,195.25 551.00,202.08 570.80,208.91 590.60,215.73 610.40,222.56 630.20,229.39 650.00,236.21 669.80,243.04 689.60,249.87 709.40,254.13 729.20,258.40 749.00,262.67 768.80,266.93 788.60,271.20 808.40,275.47 828.20,279.73 848.00,284.00" fill="none" stroke="#1f77b4" stroke-width="1.5"/>
<text x="608" y="56" fill="#1f77b4">reference silhouette (crisp)</text>
</svg>