<svg xmlns="http://www.w3.org/2000/svg" viewBox="0 0 860 320" font-family="monospace" font-size="12">
<rect x="0" y="0" width="860" height="320" fill="white"/>
<text x="56" y="16" font-size="14">45° turn, +dir, coasting: fingers vs board</text>
<line x1="56" y1="284" x2="848" y2="284" stroke="#555"/>
<line x1="56" y1="28" x2="56" y2="284" stroke="#555"/>
<line x1="56" y1="33.57" x2="848" y2="33.57" stroke="#bbb" stroke-dasharray="4 4"/>
<text x="56" y="312">t (ms): 0.0 … 1166.7</text>
<text x="8" y="38">deg: -45.0 … 1.0</text>
<polyline points="56.00,33.57 67.31,33.57 78.63,33.57 89.94,33.57 101.26,33.57 112.57,33.57 123.89,33.57 135.20,33.57 146.51,33.57 157.83,33.57 169.14,33.57 180.46,33.57 191.77,52.12 203.09,70.67 214.40,89.22 225.71,107.77 237.03,126.32 248.34,144.87 259.66,163.42 270.97,181.97 282.29,200.52 293.60,219.07 304.91,237.62 316.23,256.17 327.54,274.72 338.86,284.00 350.17,284.00 361.49,284.00 372.80,284.00 384.11,284.00 395.43,284.00 406.74,284.00 418.06,284.00 429.37,284.00 440.69,284.00 452.00,284.00 463.31,284.00 474.63,284.00 485.94,284.00 497.26,284.00 508.57,284.00 519.89,284.00 531.20,284.00 542.51,284.00 553.83,284.00 565.14,284.00 576.46,284.00 587.77,284.00 599.09,284.00 610.40,284.00 621.71,284.00 633.03,284.00 644.34,284.00 655.66,284.00 666.97,284.00 678.29,284.00 689.60,284.00 700.91,284.00 712.23,284.00 723.54,284.00 734.86,284.00 746.17,284.00 757.49,284.00 768.80,284.00 780.11,284.00 791.43,284.00 802.74,284.00 814.06,284.00 825.37,284.00 836.69,284.00 848.00,284.00" fill="none" stroke="#1f77b4" stroke-width="1.5"/>
<text x="608" y="42" fill="#1f77b4">commanded yaw Δ (fingers)</text>
<polyline points="56.00,33.57 67.31,33.47 78.63,33.43 89.94,33.35 101.26,33.31 112.57,33.27 123.89,33.27 135.20,33.26 146.51,33.28 157.83,33.28 169.14,33.28 180.46,33.30 191.77,33.43 203.09,33.76 214.40,34.33 225.71,35.19 237.03,36.37 248.34,37.88 259.66,39.72 270.97,41.90 282.29,44.41 293.60,47.24 304.91,50.41 316.23,53.89 327.54,57.68 338.86,61.73 350.17,65.96 361.49,70.26 372.80,74.57 384.11,78.85 395.43,83.08 406.74,87.28 418.06,91.44 429.37,95.56 440.69,99.61 452.00,103.64 463.31,107.54 474.63,111.27 485.94,114.94 497.26,118.43 508.57,121.82 519.89,125.15 531.20,128.44 542.51,131.69 553.83,134.87 565.14,137.99 576.46,141.08 587.77,144.07 599.09,146.98 610.40,149.82 621.71,152.60 633.03,155.33 644.34,158.02 655.66,160.66 666.97,163.25 678.29,165.80 689.60,168.30 700.91,170.75 712.23,173.13 723.54,175.46 734.86,177.74 746.17,179.99 757.49,182.16 768.80,184.26 780.11,186.34 791.43,188.39 802.74,190.40 814.06,192.37 825.37,194.29 836.69,196.18 848.00,198.05" fill="none" stroke="#d62728" stroke-width="1.5"/>
<text x="608" y="56" fill="#d62728">actual yaw Δ (board)</text>
</svg>