<svg xmlns="http://www.w3.org/2000/svg" viewBox="0 0 860 320" font-family="monospace" font-size="12">
<rect x="0" y="0" width="860" height="320" fill="white"/>
<text x="56" y="16" font-size="14">45° turn, −dir, coasting: fingers vs board</text>
<line x1="56" y1="284" x2="848" y2="284" stroke="#555"/>
<line x1="56" y1="28" x2="56" y2="284" stroke="#555"/>
<text x="56" y="312">t (ms): 0.0 … 1166.7</text>
<text x="8" y="38">deg: 0.0 … 45.0</text>
<polyline points="56.00,284.00 67.31,284.00 78.63,284.00 89.94,284.00 101.26,284.00 112.57,284.00 123.89,284.00 135.20,284.00 146.51,284.00 157.83,284.00 169.14,284.00 180.46,284.00 191.77,265.04 203.09,246.07 214.40,227.11 225.71,208.15 237.03,189.19 248.34,170.22 259.66,151.26 270.97,132.30 282.29,113.33 293.60,94.37 304.91,75.41 316.23,56.44 327.54,37.48 338.86,28.00 350.17,28.00 361.49,28.00 372.80,28.00 384.11,28.00 395.43,28.00 406.74,28.00 418.06,28.00 429.37,28.00 440.69,28.00 452.00,28.00 463.31,28.00 474.63,28.00 485.94,28.00 497.26,28.00 508.57,28.00 519.89,28.00 531.20,28.00 542.51,28.00 553.83,28.00 565.14,28.00 576.46,28.00 587.77,28.00 599.09,28.00 610.40,28.00 621.71,28.00 633.03,28.00 644.34,28.00 655.66,28.00 666.97,28.00 678.29,28.00 689.60,28.00 700.91,28.00 712.23,28.00 723.54,28.00 734.86,28.00 746.17,28.00 757.49,28.00 768.80,28.00 780.11,28.00 791.43,28.00 802.74,28.00 814.06,28.00 825.37,28.00 836.69,28.00 848.00,28.00" fill="none" stroke="#1f77b4" stroke-width="1.5"/>
<text x="608" y="42" fill="#1f77b4">commanded yaw Δ (fingers)</text>
<polyline points="56.00,284.00 67.31,283.99 78.63,283.95 89.94,283.90 101.26,283.85 112.57,283.79 123.89,283.73 135.20,283.69 146.51,283.67 157.83,283.65 169.14,283.65 180.46,283.62 191.77,283.49 203.09,283.16 214.40,282.57 225.71,281.70 237.03,280.50 248.34,278.98 259.66,277.12 270.97,274.92 282.29,272.36 293.60,269.46 304.91,266.27 316.23,262.76 327.54,258.93 338.86,254.84 350.17,250.50 361.49,246.02 372.80,241.60 384.11,237.21 395.43,232.89 406.74,228.64 418.06,224.47 429.37,220.33 440.69,216.22 452.00,212.25 463.31,208.35 474.63,204.52 485.94,200.72 497.26,196.99 508.57,193.34 519.89,189.78 531.20,186.31 542.51,182.91 553.83,179.65 565.14,176.52 576.46,173.44 587.77,170.39 599.09,167.40 610.40,164.47 621.71,161.56 633.03,158.67 644.34,155.88 655.66,153.19 666.97,150.54 678.29,147.94 689.60,145.49 700.91,143.09 712.23,140.68 723.54,138.31 734.86,135.97 746.17,133.69 757.49,131.38 768.80,129.09 780.11,126.89 791.43,124.75 802.74,122.64 814.06,120.55 825.37,118.53 836.69,116.58 848.00,114.70" fill="none" stroke="#d62728" stroke-width="1.5"/>
<text x="608" y="56" fill="#d62728">actual yaw Δ (board)</text>
</svg>