<svg xmlns="http://www.w3.org/2000/svg" viewBox="0 0 860 320" font-family="monospace" font-size="12">
<rect x="0" y="0" width="860" height="320" fill="white"/>
<text x="56" y="16" font-size="14">ratchet 2×45° with re-grip</text>
<line x1="56" y1="284" x2="848" y2="284" stroke="#555"/>
<line x1="56" y1="28" x2="56" y2="284" stroke="#555"/>
<line x1="56" y1="29.93" x2="848" y2="29.93" stroke="#bbb" stroke-dasharray="4 4"/>
<text x="56" y="312">t (ms): 0.0 … 1583.3</text>
<text x="8" y="38">deg: -131.7 … 1.0</text>
<polyline points="56.00,29.93 64.34,36.36 72.67,42.79 81.01,49.23 89.35,55.66 97.68,62.09 106.02,68.52 114.36,74.95 122.69,81.39 131.03,87.82 139.37,94.25 147.71,100.68 156.04,107.12 164.38,110.33 172.72,110.33 181.05,110.33 189.39,110.33 197.73,110.33 206.06,110.33 214.40,110.33 222.74,110.33 231.07,110.33 239.41,110.33 247.75,110.33 256.08,110.33 264.42,110.33 272.76,110.33 281.09,110.33 289.43,110.33 297.77,110.33 306.11,110.33 314.44,110.33 322.78,110.33 331.12,110.33 339.45,110.33 347.79,110.33 356.13,110.33 364.46,110.33 372.80,110.33 381.14,110.33 389.47,110.33 397.81,110.33 406.15,110.33 414.48,110.33 422.82,110.33 431.16,110.33 439.49,116.76 447.83,123.20 456.17,129.63 464.51,136.06 472.84,142.49 481.18,148.92 489.52,155.36 497.85,161.79 506.19,168.22 514.53,174.65 522.86,181.09 531.20,187.52 539.54,193.95 547.87,197.17 556.21,197.17 564.55,197.17 572.88,197.17 581.22,197.17 589.56,197.17 597.89,197.17 606.23,284.00 614.57,284.00 622.91,284.00 631.24,284.00 639.58,284.00 647.92,284.00 656.25,284.00 664.59,284.00 672.93,284.00 681.26,284.00 689.60,284.00 697.94,284.00 706.27,284.00 714.61,284.00 722.95,284.00 731.28,284.00 739.62,284.00 747.96,284.00 756.29,284.00 764.63,284.00 772.97,284.00 781.31,284.00 789.64,284.00 797.98,284.00 806.32,284.00 814.65,284.00 822.99,284.00 831.33,284.00 839.66,284.00 848.00,284.00" fill="none" stroke="#1f77b4" stroke-width="1.5"/>
<text x="608" y="42" fill="#1f77b4">commanded yaw Δ (fingers)</text>
<polyline points="56.00,29.93 64.34,30.04 72.67,30.24 81.01,30.56 89.35,30.98 97.68,31.50 106.02,32.13 114.36,32.87 122.69,33.73 131.03,34.71 139.37,35.80 147.71,37.01 156.04,38.32 164.38,39.71 172.72,41.16 181.05,42.64 189.39,44.12 197.73,45.62 206.06,47.09 214.40,48.54 222.74,49.58 231.07,50.29 239.41,50.79 247.75,51.15 256.08,51.40 264.42,51.58 272.76,51.68 281.09,51.74 289.43,51.79 297.77,51.82 306.11,51.83 314.44,51.83 322.78,51.82 331.12,51.81 339.45,51.80 347.79,51.80 356.13,51.80 364.46,51.80 372.80,51.80 381.14,51.80 389.47,51.67 397.81,51.42 406.15,51.11 414.48,50.74 422.82,50.36 431.16,49.96 439.49,49.60 447.83,49.30 456.17,49.11 464.51,49.02 472.84,49.05 481.18,49.20 489.52,49.48 497.85,49.88 506.19,50.41 514.53,51.07 522.86,51.84 531.20,52.74 539.54,53.74 547.87,54.84 556.21,56.00 564.55,57.18 572.88,58.36 581.22,59.57 589.56,60.76 597.89,61.92 606.23,63.07 614.57,64.21 622.91,65.32 631.24,66.41 639.58,67.47 647.92,68.52 656.25,69.53 664.59,70.52 672.93,71.49 681.26,72.45 689.60,73.40 697.94,74.34 706.27,75.24 714.61,76.13 722.95,77.00 731.28,77.85 739.62,78.69 747.96,79.52 756.29,80.32 764.63,81.12 772.97,81.89 781.31,82.64 789.64,83.38 797.98,84.09 806.32,84.79 814.65,85.47 822.99,86.15 831.33,86.81 839.66,87.46 848.00,88.08" fill="none" stroke="#d62728" stroke-width="1.5"/>
<text x="608" y="56" fill="#d62728">actual yaw Δ (board)</text>
</svg>