<svg xmlns="http://www.w3.org/2000/svg" viewBox="0 0 860 320" font-family="monospace" font-size="12">
<rect x="0" y="0" width="860" height="320" fill="white"/>
<text x="56" y="16" font-size="14">standstill pivot, 200°/s for 1 s</text>
<line x1="56" y1="284" x2="848" y2="284" stroke="#555"/>
<line x1="56" y1="28" x2="56" y2="284" stroke="#555"/>
<line x1="56" y1="29.27" x2="848" y2="29.27" stroke="#bbb" stroke-dasharray="4 4"/>
<text x="56" y="312">t (ms): 0.0 … 1683.3</text>
<text x="8" y="38">deg: -200.0 … 1.0</text>
<polyline points="56.00,29.27 63.84,29.27 71.68,29.27 79.52,29.27 87.37,29.27 95.21,29.27 103.05,29.27 110.89,29.27 118.73,29.27 126.57,29.27 134.42,29.27 142.26,29.27 150.10,33.52 157.94,37.76 165.78,42.01 173.62,46.26 181.47,50.50 189.31,54.75 197.15,58.99 204.99,63.24 212.83,67.48 220.67,71.73 228.51,75.97 236.36,80.22 244.20,84.46 252.04,88.71 259.88,92.96 267.72,97.20 275.56,101.45 283.41,105.69 291.25,109.94 299.09,114.18 306.93,118.43 314.77,122.67 322.61,126.92 330.46,131.16 338.30,135.41 346.14,139.66 353.98,143.90 361.82,148.15 369.66,152.39 377.50,156.64 385.35,160.88 393.19,165.13 401.03,169.37 408.87,173.62 416.71,177.86 424.55,182.11 432.40,186.35 440.24,190.60 448.08,194.85 455.92,199.09 463.76,203.34 471.60,207.58 479.45,211.83 487.29,216.07 495.13,220.32 502.97,224.56 510.81,228.81 518.65,233.05 526.50,237.30 534.34,241.55 542.18,245.79 550.02,250.04 557.86,254.28 565.70,258.53 573.54,262.77 581.39,267.02 589.23,271.26 597.07,275.51 604.91,279.75 612.75,284.00 620.59,284.00 628.44,284.00 636.28,284.00 644.12,284.00 651.96,284.00 659.80,284.00 667.64,284.00 675.49,284.00 683.33,284.00 691.17,284.00 699.01,284.00 706.85,284.00 714.69,284.00 722.53,284.00 730.38,284.00 738.22,284.00 746.06,284.00 753.90,284.00 761.74,284.00 769.58,284.00 777.43,284.00 785.27,284.00 793.11,284.00 800.95,284.00 808.79,284.00 816.63,284.00 824.48,284.00 832.32,284.00 840.16,284.00 848.00,284.00" fill="none" stroke="#1f77b4" stroke-width="1.5"/>
<text x="608" y="42" fill="#1f77b4">commanded yaw Δ (fingers)</text>
<polyline points="56.00,29.27 63.84,29.30 71.68,29.31 79.52,29.32 87.37,29.34 95.21,29.34 103.05,29.34 110.89,29.33 118.73,29.33 126.57,29.33 134.42,29.33 142.26,29.33 150.10,29.32 157.94,29.32 165.78,29.31 173.62,29.31 181.47,29.32 189.31,29.32 197.15,29.33 204.99,29.34 212.83,29.34 220.67,29.35 228.51,29.35 236.36,29.35 244.20,29.36 252.04,29.37 259.88,29.36 267.72,29.37 275.56,29.38 283.41,29.38 291.25,29.39 299.09,29.38 306.93,29.38 314.77,29.37 322.61,29.36 330.46,29.35 338.30,29.35 346.14,29.35 353.98,29.35 361.82,29.35 369.66,29.36 377.50,29.37 385.35,29.40 393.19,29.40 401.03,29.41 408.87,29.42 416.71,29.42 424.55,29.43 432.40,29.45 440.24,29.45 448.08,29.45 455.92,29.45 463.76,29.47 471.60,29.50 479.45,29.53 487.29,29.56 495.13,29.57 502.97,29.59 510.81,29.60 518.65,29.62 526.50,29.62 534.34,29.62 542.18,29.61 550.02,29.63 557.86,29.65 565.70,29.67 573.54,29.68 581.39,29.70 589.23,29.72 597.07,29.72 604.91,29.71 612.75,29.69 620.59,29.69 628.44,29.71 636.28,29.72 644.12,29.72 651.96,29.72 659.80,29.71 667.64,29.71 675.49,29.70 683.33,29.70 691.17,29.70 699.01,29.70 706.85,29.71 714.69,29.71 722.53,29.71 730.38,29.71 738.22,29.71 746.06,29.71 753.90,29.70 761.74,29.69 769.58,29.69 777.43,29.69 785.27,29.69 793.11,29.68 800.95,29.66 808.79,29.66 816.63,29.65 824.48,29.64 832.32,29.64 840.16,29.64 848.00,29.63" fill="none" stroke="#d62728" stroke-width="1.5"/>
<text x="608" y="56" fill="#d62728">actual yaw Δ (board)</text>
</svg>