<svg xmlns="http://www.w3.org/2000/svg" viewBox="0 0 860 320" font-family="monospace" font-size="12">
<rect x="0" y="0" width="860" height="320" fill="white"/>
<text x="56" y="16" font-size="14">nollie #1: pitch vs mirrored reference</text>
<line x1="56" y1="284" x2="848" y2="284" stroke="#555"/>
<line x1="56" y1="28" x2="56" y2="284" stroke="#555"/>
<line x1="56" y1="71.17" x2="848" y2="71.17" stroke="#bbb" stroke-dasharray="4 4"/>
<text x="56" y="312">t since kick (ms): 0.0 … 683.3</text>
<text x="8" y="38">nose-up pitch (deg): -24.0 … 4.9</text>
<polyline points="75.32,73.89 94.63,82.26 113.95,91.53 133.27,101.02 152.59,111.43 171.90,122.63 191.22,135.25 210.54,149.07 229.85,164.32 249.17,180.76 268.49,197.86 287.80,215.36 307.12,233.10 326.44,249.15 345.76,263.04 365.07,275.28 384.39,281.77 403.71,284.00 423.02,282.62 442.34,275.64 461.66,264.60 480.98,250.68 500.29,234.76 519.61,217.51 538.93,199.42 558.24,180.86 577.56,162.09 596.88,144.59 616.20,128.25 635.51,112.86 654.83,98.25 674.15,84.33 693.46,72.73 712.78,62.89 732.10,54.38 751.41,46.86 770.73,40.06 790.05,33.79 809.37,28.00 828.68,34.66 848.00,56.17" fill="none" stroke="#d62728" stroke-width="1.5"/>
<text x="608" y="42" fill="#d62728">measured pitch</text>
<polyline points="75.32,77.24 94.63,83.30 113.95,93.07 133.27,103.03 152.59,115.34 171.90,127.90 191.22,143.04 210.54,158.64 229.85,175.97 249.17,193.73 268.49,210.93 287.80,227.95 307.12,244.97 326.44,254.91 345.76,263.89 365.07,272.72 384.39,267.77 403.71,262.82 423.02,256.38 442.34,240.78 461.66,225.19 480.98,209.59 500.29,193.99 519.61,178.40 538.93,162.80 558.24,147.21 577.56,131.61 596.88,119.98 616.20,108.61 635.51,97.24 654.83,85.87 674.15,74.61 693.46,68.74 712.78,62.88 732.10,57.02 751.41,51.16 770.73,45.30 790.05,39.44 809.37,33.91 828.68,34.78 848.00,35.65" fill="none" stroke="#1f77b4" stroke-width="1.5"/>
<text x="608" y="56" fill="#1f77b4">authored silhouette (crisp)</text>
</svg>