<svg xmlns="http://www.w3.org/2000/svg" viewBox="0 0 860 320" font-family="monospace" font-size="12">
<rect x="0" y="0" width="860" height="320" fill="white"/>
<text x="56" y="16" font-size="14">ollie #1: pitch vs reference silhouette</text>
<line x1="56" y1="284" x2="848" y2="284" stroke="#555"/>
<line x1="56" y1="28" x2="56" y2="284" stroke="#555"/>
<line x1="56" y1="237.92" x2="848" y2="237.92" stroke="#bbb" stroke-dasharray="4 4"/>
<text x="56" y="312">t since kick (ms): 0.0 … 683.3</text>
<text x="8" y="38">nose-up pitch (deg): -5.1 … 23.4</text>
<polyline points="75.32,233.62 94.63,226.22 113.95,217.53 133.27,208.37 152.59,198.12 171.90,186.99 191.22,174.38 210.54,160.56 229.85,145.31 249.17,128.90 268.49,111.87 287.80,94.51 307.12,76.96 326.44,61.21 345.76,47.66 365.07,35.84 384.39,29.78 403.71,28.00 423.02,29.83 442.34,37.21 461.66,48.61 480.98,62.27 500.29,77.89 519.61,94.83 538.93,112.60 558.24,130.86 577.56,149.36 596.88,166.64 616.20,182.83 635.51,198.11 654.83,212.65 674.15,226.55 693.46,238.20 712.78,248.15 732.10,256.81 751.41,264.51 770.73,271.50 790.05,277.99 809.37,284.00 828.68,282.64 848.00,259.17" fill="none" stroke="#d62728" stroke-width="1.5"/>
<text x="608" y="42" fill="#d62728">measured pitch</text>
<polyline points="75.32,231.80 94.63,225.69 113.95,215.83 133.27,205.78 152.59,193.37 171.90,180.70 191.22,165.42 210.54,149.69 229.85,132.21 249.17,114.29 268.49,96.94 287.80,79.77 307.12,62.60 326.44,52.58 345.76,43.52 365.07,34.61 384.39,39.61 403.71,44.60 423.02,51.10 442.34,66.83 461.66,82.56 480.98,98.29 500.29,114.03 519.61,129.76 538.93,145.49 558.24,161.22 577.56,176.96 596.88,188.68 616.20,200.15 635.51,211.63 654.83,223.10 674.15,234.46 693.46,240.37 712.78,246.28 732.10,252.19 751.41,258.11 770.73,264.02 790.05,269.93 809.37,275.50 828.68,274.63 848.00,273.76" fill="none" stroke="#1f77b4" stroke-width="1.5"/>
<text x="608" y="56" fill="#1f77b4">authored silhouette (crisp)</text>
</svg>