<svg xmlns="http://www.w3.org/2000/svg" viewBox="0 0 860 320" font-family="monospace" font-size="12">
<rect x="0" y="0" width="860" height="320" fill="white"/>
<text x="56" y="16" font-size="14">45° turn, −dir, coasting: fingers vs board</text>
<line x1="56" y1="284" x2="848" y2="284" stroke="#555"/>
<line x1="56" y1="28" x2="56" y2="284" stroke="#555"/>
<line x1="56" y1="283.90" x2="848" y2="283.90" stroke="#bbb" stroke-dasharray="4 4"/>
<text x="56" y="312">t (ms): 0.0 … 1166.7</text>
<text x="8" y="38">deg: -0.0 … 50.3</text>
<polyline points="56.00,283.90 67.31,283.90 78.63,283.90 89.94,283.90 101.26,283.90 112.57,283.90 123.89,283.90 135.20,283.90 146.51,283.90 157.83,283.90 169.14,283.90 180.46,283.90 191.77,265.26 203.09,246.62 214.40,227.98 225.71,209.34 237.03,190.71 248.34,172.07 259.66,153.43 270.97,134.79 282.29,116.15 293.60,97.52 304.91,78.88 316.23,60.24 327.54,41.60 338.86,32.28 350.17,32.28 361.49,32.28 372.80,32.28 384.11,32.28 395.43,32.28 406.74,32.28 418.06,32.28 429.37,32.28 440.69,32.28 452.00,32.28 463.31,32.28 474.63,32.28 485.94,32.28 497.26,32.28 508.57,32.28 519.89,32.28 531.20,32.28 542.51,32.28 553.83,32.28 565.14,32.28 576.46,32.28 587.77,32.28 599.09,32.28 610.40,32.28 621.71,32.28 633.03,32.28 644.34,32.28 655.66,32.28 666.97,32.28 678.29,32.28 689.60,32.28 700.91,32.28 712.23,32.28 723.54,32.28 734.86,32.28 746.17,32.28 757.49,32.28 768.80,32.28 780.11,32.28 791.43,32.28 802.74,32.28 814.06,32.28 825.37,32.28 836.69,32.28 848.00,32.28" fill="none" stroke="#1f77b4" stroke-width="1.5"/>
<text x="608" y="42" fill="#1f77b4">commanded yaw Δ (fingers)</text>
<polyline points="56.00,283.90 67.31,283.95 78.63,283.98 89.94,284.00 101.26,284.00 112.57,284.00 123.89,283.99 135.20,283.98 146.51,283.94 157.83,283.95 169.14,283.95 180.46,283.99 191.77,270.88 203.09,252.61 214.40,232.90 225.71,214.00 237.03,195.70 248.34,177.02 259.66,156.99 270.97,138.08 282.29,119.38 293.60,99.27 304.91,80.03 316.23,62.05 327.54,43.25 338.86,31.66 350.17,28.65 361.49,28.00 372.80,28.12 384.11,28.46 395.43,28.97 406.74,29.67 418.06,30.39 429.37,30.93 440.69,31.34 452.00,31.63 463.31,31.81 474.63,31.96 485.94,32.07 497.26,32.15 508.57,32.20 519.89,32.23 531.20,32.25 542.51,32.27 553.83,32.30 565.14,32.31 576.46,32.32 587.77,32.33 599.09,32.33 610.40,32.33 621.71,32.33 633.03,32.33 644.34,32.33 655.66,32.33 666.97,32.33 678.29,32.34 689.60,32.34 700.91,32.34 712.23,32.34 723.54,32.34 734.86,32.36 746.17,32.35 757.49,32.34 768.80,32.35 780.11,32.36 791.43,32.35 802.74,32.34 814.06,32.40 825.37,32.39 836.69,32.37 848.00,32.41" fill="none" stroke="#d62728" stroke-width="1.5"/>
<text x="608" y="56" fill="#d62728">actual yaw Δ (board)</text>
</svg>