<svg xmlns="http://www.w3.org/2000/svg" viewBox="0 0 860 320" font-family="monospace" font-size="12">
<rect x="0" y="0" width="860" height="320" fill="white"/>
<text x="56" y="16" font-size="14">standstill pivot, 200°/s for 1 s</text>
<line x1="56" y1="284" x2="848" y2="284" stroke="#555"/>
<line x1="56" y1="28" x2="56" y2="284" stroke="#555"/>
<line x1="56" y1="29.16" x2="848" y2="29.16" stroke="#bbb" stroke-dasharray="4 4"/>
<text x="56" y="312">t (ms): 0.0 … 1683.3</text>
<text x="8" y="38">deg: -220.2 … 1.0</text>
<polyline points="56.00,29.16 63.84,29.16 71.68,29.16 79.52,29.16 87.37,29.16 95.21,29.16 103.05,29.16 110.89,29.16 118.73,29.16 126.57,29.16 134.42,29.16 142.26,29.16 150.10,33.40 157.94,37.64 165.78,41.89 173.62,46.13 181.47,50.37 189.31,54.61 197.15,58.86 204.99,63.10 212.83,67.34 220.67,71.59 228.51,75.83 236.36,80.07 244.20,84.31 252.04,88.56 259.88,92.80 267.72,97.04 275.56,101.29 283.41,105.53 291.25,109.77 299.09,114.01 306.93,118.26 314.77,122.50 322.61,126.74 330.46,130.99 338.30,135.23 346.14,139.47 353.98,143.71 361.82,147.96 369.66,152.20 377.50,156.44 385.35,160.69 393.19,164.93 401.03,169.17 408.87,173.41 416.71,177.66 424.55,181.90 432.40,186.14 440.24,190.38 448.08,194.63 455.92,198.87 463.76,203.11 471.60,207.36 479.45,211.60 487.29,215.84 495.13,220.08 502.97,224.33 510.81,228.57 518.65,232.81 526.50,237.06 534.34,241.30 542.18,245.54 550.02,249.78 557.86,254.03 565.70,258.27 573.54,262.51 581.39,266.76 589.23,271.00 597.07,275.24 604.91,279.48 612.75,283.73 620.59,283.73 628.44,283.73 636.28,283.73 644.12,283.73 651.96,283.73 659.80,283.73 667.64,283.73 675.49,283.73 683.33,283.73 691.17,283.73 699.01,283.73 706.85,283.73 714.69,283.73 722.53,283.73 730.38,283.73 738.22,283.73 746.06,283.73 753.90,283.73 761.74,283.73 769.58,283.73 777.43,283.73 785.27,283.73 793.11,283.73 800.95,283.73 808.79,283.73 816.63,283.73 824.48,283.73 832.32,283.73 840.16,283.73 848.00,283.73" fill="none" stroke="#1f77b4" stroke-width="1.5"/>
<text x="608" y="42" fill="#1f77b4">commanded yaw Δ (fingers)</text>
<polyline points="56.00,29.16 63.84,29.16 71.68,29.16 79.52,29.16 87.37,29.15 95.21,29.18 103.05,29.19 110.89,29.18 118.73,29.17 126.57,29.16 134.42,29.16 142.26,29.17 150.10,32.08 157.94,36.15 165.78,40.51 173.62,44.84 181.47,49.14 189.31,53.97 197.15,58.13 204.99,62.12 212.83,66.23 220.67,70.31 228.51,75.10 236.36,79.53 244.20,83.88 252.04,88.15 259.88,92.11 267.72,96.26 275.56,100.37 283.41,104.82 291.25,108.89 299.09,112.99 306.93,117.39 314.77,121.68 322.61,125.70 330.46,129.82 338.30,133.91 346.14,138.15 353.98,142.63 361.82,147.19 369.66,151.86 377.50,156.22 385.35,160.20 393.19,164.10 401.03,168.09 408.87,172.13 416.71,176.69 424.55,180.93 432.40,185.04 440.24,189.09 448.08,193.16 455.92,197.51 463.76,201.65 471.60,205.78 479.45,209.92 487.29,214.09 495.13,218.30 502.97,222.52 510.81,227.04 518.65,231.29 526.50,235.62 534.34,239.94 542.18,244.58 550.02,249.20 557.86,253.68 565.70,258.06 573.54,262.01 581.39,266.03 589.23,270.28 597.07,274.36 604.91,278.67 612.75,282.89 620.59,283.84 628.44,284.00 636.28,283.97 644.12,283.91 651.96,283.87 659.80,283.83 667.64,283.81 675.49,283.79 683.33,283.78 691.17,283.77 699.01,283.77 706.85,283.76 714.69,283.75 722.53,283.75 730.38,283.74 738.22,283.74 746.06,283.74 753.90,283.74 761.74,283.74 769.58,283.74 777.43,283.74 785.27,283.74 793.11,283.74 800.95,283.74 808.79,283.74 816.63,283.74 824.48,283.74 832.32,283.74 840.16,283.74 848.00,283.74" fill="none" stroke="#d62728" stroke-width="1.5"/>
<text x="608" y="56" fill="#d62728">actual yaw Δ (board)</text>
</svg>