<svg xmlns="http://www.w3.org/2000/svg" viewBox="0 0 860 320" font-family="monospace" font-size="12">
<rect x="0" y="0" width="860" height="320" fill="white"/>
<text x="56" y="16" font-size="14">45° turn, +dir, coasting: fingers vs board</text>
<line x1="56" y1="284" x2="848" y2="284" stroke="#555"/>
<line x1="56" y1="28" x2="56" y2="284" stroke="#555"/>
<line x1="56" y1="32.99" x2="848" y2="32.99" stroke="#bbb" stroke-dasharray="4 4"/>
<text x="56" y="312">t (ms): 0.0 … 1166.7</text>
<text x="8" y="38">deg: -50.3 … 1.0</text>
<polyline points="56.00,32.99 67.31,32.99 78.63,32.99 89.94,32.99 101.26,32.99 112.57,32.99 123.89,32.99 135.20,32.99 146.51,32.99 157.83,32.99 169.14,32.99 180.46,32.99 191.77,51.29 203.09,69.59 214.40,87.88 225.71,106.18 237.03,124.48 248.34,142.78 259.66,161.07 270.97,179.37 282.29,197.67 293.60,215.97 304.91,234.26 316.23,252.56 327.54,270.86 338.86,280.01 350.17,280.01 361.49,280.01 372.80,280.01 384.11,280.01 395.43,280.01 406.74,280.01 418.06,280.01 429.37,280.01 440.69,280.01 452.00,280.01 463.31,280.01 474.63,280.01 485.94,280.01 497.26,280.01 508.57,280.01 519.89,280.01 531.20,280.01 542.51,280.01 553.83,280.01 565.14,280.01 576.46,280.01 587.77,280.01 599.09,280.01 610.40,280.01 621.71,280.01 633.03,280.01 644.34,280.01 655.66,280.01 666.97,280.01 678.29,280.01 689.60,280.01 700.91,280.01 712.23,280.01 723.54,280.01 734.86,280.01 746.17,280.01 757.49,280.01 768.80,280.01 780.11,280.01 791.43,280.01 802.74,280.01 814.06,280.01 825.37,280.01 836.69,280.01 848.00,280.01" fill="none" stroke="#1f77b4" stroke-width="1.5"/>
<text x="608" y="42" fill="#1f77b4">commanded yaw Δ (fingers)</text>
<polyline points="56.00,32.99 67.31,32.98 78.63,32.94 89.94,32.94 101.26,32.94 112.57,32.95 123.89,32.95 135.20,32.96 146.51,32.96 157.83,32.96 169.14,32.95 180.46,32.94 191.77,45.22 203.09,61.93 214.40,80.32 225.71,98.80 237.03,117.72 248.34,138.21 259.66,158.17 270.97,177.44 282.29,196.31 293.60,216.11 304.91,234.11 316.23,251.99 327.54,269.98 338.86,281.06 350.17,283.70 361.49,284.00 372.80,283.56 384.11,282.82 395.43,282.12 406.74,281.58 418.06,281.16 429.37,280.77 440.69,280.51 452.00,280.32 463.31,280.25 474.63,280.14 485.94,280.11 497.26,280.09 508.57,280.07 519.89,280.08 531.20,280.07 542.51,280.04 553.83,280.01 565.14,279.99 576.46,279.98 587.77,279.98 599.09,279.97 610.40,279.98 621.71,280.01 633.03,280.00 644.34,279.99 655.66,279.99 666.97,279.98 678.29,279.98 689.60,279.98 700.91,279.98 712.23,279.98 723.54,279.98 734.86,279.98 746.17,279.98 757.49,279.98 768.80,279.98 780.11,279.96 791.43,279.96 802.74,279.99 814.06,280.02 825.37,279.99 836.69,280.03 848.00,280.02" fill="none" stroke="#d62728" stroke-width="1.5"/>
<text x="608" y="56" fill="#d62728">actual yaw Δ (board)</text>
</svg>