<svg xmlns="http://www.w3.org/2000/svg" viewBox="0 0 860 320" font-family="monospace" font-size="12">
<rect x="0" y="0" width="860" height="320" fill="white"/>
<text x="56" y="16" font-size="14">ratchet 2×45° with re-grip</text>
<line x1="56" y1="284" x2="848" y2="284" stroke="#555"/>
<line x1="56" y1="28" x2="56" y2="284" stroke="#555"/>
<line x1="56" y1="29.71" x2="848" y2="29.71" stroke="#bbb" stroke-dasharray="4 4"/>
<text x="56" y="312">t (ms): 0.0 … 1600.0</text>
<text x="8" y="38">deg: -148.5 … 1.0</text>
<polyline points="56.00,29.71 64.25,35.99 72.50,42.27 80.75,48.55 89.00,54.83 97.25,61.11 105.50,67.38 113.75,73.66 122.00,79.94 130.25,86.22 138.50,92.50 146.75,98.78 155.00,105.06 163.25,111.34 171.50,114.47 179.75,114.47 188.00,114.47 196.25,114.47 204.50,114.47 212.75,114.47 221.00,114.47 229.25,114.47 237.50,114.47 245.75,114.47 254.00,114.47 262.25,114.47 270.50,114.47 278.75,114.47 287.00,114.47 295.25,114.47 303.50,114.47 311.75,114.47 320.00,114.47 328.25,114.47 336.50,114.47 344.75,114.47 353.00,114.47 361.25,114.47 369.50,114.47 377.75,114.47 386.00,114.47 394.25,114.47 402.50,114.47 410.75,114.47 419.00,114.47 427.25,114.47 435.50,114.47 443.75,120.75 452.00,127.03 460.25,133.31 468.50,139.59 476.75,145.87 485.00,152.15 493.25,158.43 501.50,164.70 509.75,170.98 518.00,177.26 526.25,183.54 534.50,189.82 542.75,196.10 551.00,199.24 559.25,199.24 567.50,199.24 575.75,199.24 584.00,199.24 592.25,199.24 600.50,199.24 608.75,284.00 617.00,284.00 625.25,284.00 633.50,284.00 641.75,284.00 650.00,284.00 658.25,284.00 666.50,284.00 674.75,284.00 683.00,284.00 691.25,284.00 699.50,284.00 707.75,284.00 716.00,284.00 724.25,284.00 732.50,284.00 740.75,284.00 749.00,284.00 757.25,284.00 765.50,284.00 773.75,284.00 782.00,284.00 790.25,284.00 798.50,284.00 806.75,284.00 815.00,284.00 823.25,284.00 831.50,284.00 839.75,284.00 848.00,284.00" fill="none" stroke="#1f77b4" stroke-width="1.5"/>
<text x="608" y="42" fill="#1f77b4">commanded yaw Δ (fingers)</text>
<polyline points="56.00,29.71 64.25,34.11 72.50,40.38 80.75,46.50 89.00,52.78 97.25,59.37 105.50,66.15 113.75,72.66 122.00,79.33 130.25,86.11 138.50,92.55 146.75,98.88 155.00,105.20 163.25,111.52 171.50,115.37 179.75,116.29 188.00,116.30 196.25,116.06 204.50,115.73 212.75,115.41 221.00,115.15 229.25,114.99 237.50,114.87 245.75,114.81 254.00,114.77 262.25,114.75 270.50,114.74 278.75,114.74 287.00,114.73 295.25,114.72 303.50,114.71 311.75,114.72 320.00,114.72 328.25,114.71 336.50,114.71 344.75,114.70 353.00,114.70 361.25,114.70 369.50,114.70 377.75,114.71 386.00,114.71 394.25,114.71 402.50,114.71 410.75,114.71 419.00,114.72 427.25,114.72 435.50,114.72 443.75,118.93 452.00,124.78 460.25,130.98 468.50,137.40 476.75,143.97 485.00,150.62 493.25,157.30 501.50,163.96 509.75,170.58 518.00,177.11 526.25,183.56 534.50,189.93 542.75,196.27 551.00,200.16 559.25,201.08 567.50,201.19 575.75,201.05 584.00,200.79 592.25,200.55 600.50,200.27 608.75,200.05 617.00,199.89 625.25,199.77 633.50,199.69 641.75,199.62 650.00,199.58 658.25,199.55 666.50,199.54 674.75,199.52 683.00,199.51 691.25,199.51 699.50,199.50 707.75,199.50 716.00,199.49 724.25,199.50 732.50,199.51 740.75,199.48 749.00,199.46 757.25,199.46 765.50,199.47 773.75,199.47 782.00,199.47 790.25,199.47 798.50,199.47 806.75,199.47 815.00,199.47 823.25,199.48 831.50,199.48 839.75,199.47 848.00,199.47" fill="none" stroke="#d62728" stroke-width="1.5"/>
<text x="608" y="56" fill="#d62728">actual yaw Δ (board)</text>
</svg>